{"glyphs":{"0":{"ha":719,"x_min":64,"x_max":655,"o":"m 655 282 l 655 957 q 569 1166 655 1079 q 360 1253 483 1253 q 151 1166 238 1253 q 64 957 64 1080 l 64 282 q 150 73 64 160 q 360 -13 237 -13 q 568 73 481 -13 q 655 282 655 159 m 462 961 l 462 285 q 430 209 462 241 q 354 178 399 178 q 279 209 310 178 q 248 285 248 241 l 248 961 q 279 1037 248 1005 q 354 1068 310 1068 q 430 1037 399 1068 q 462 961 462 1005 "},"1":{"ha":473,"x_min":64,"x_max":409,"o":"m 222 0 l 409 0 l 409 1237 l 279 1237 q 192 1133 253 1176 q 64 1082 131 1090 l 64 952 l 222 952 l 222 0 "},"2":{"ha":736,"x_min":64,"x_max":672,"o":"m 67 888 l 67 855 l 251 855 l 251 903 q 261 974 251 944 q 372 1063 294 1063 q 461 1022 426 1063 q 492 926 492 982 q 458 777 492 857 q 329 559 415 680 q 196 373 239 431 l 148 303 q 106 240 124 268 q 64 172 64 178 l 64 1 l 657 1 l 657 183 l 291 184 q 299 201 291 187 q 348 279 316 230 l 382 329 q 472 465 442 421 q 616 689 585 623 q 672 932 672 806 q 585 1146 672 1054 q 377 1238 499 1238 q 162 1156 244 1238 q 67 888 67 1063 "},"3":{"ha":733,"x_min":64,"x_max":669,"o":"m 354 178 q 279 207 308 178 q 246 283 250 237 l 242 327 l 64 313 l 64 282 q 150 74 64 161 q 359 -13 236 -13 q 575 72 485 -13 q 669 297 669 160 l 669 395 q 645 512 669 464 q 517 653 600 607 q 586 713 556 678 q 655 912 655 797 l 655 965 q 584 1164 655 1084 q 374 1253 505 1253 q 160 1158 236 1253 q 93 943 93 1075 l 93 914 l 275 914 l 275 947 q 296 1037 275 1002 q 383 1082 324 1082 q 489 961 489 1082 l 489 932 q 442 780 489 835 q 283 720 391 720 l 283 560 q 482 370 482 560 l 482 297 q 354 178 482 178 "},"4":{"ha":763,"x_min":64,"x_max":699,"o":"m 64 455 l 64 267 l 394 267 l 394 1 l 580 1 l 580 267 l 699 267 l 699 455 l 580 455 l 580 1238 l 394 1238 l 64 455 m 394 455 l 240 455 l 394 840 l 394 455 "},"5":{"ha":705,"x_min":64,"x_max":641,"o":"m 270 1051 l 628 1051 l 628 1238 l 83 1238 l 83 562 l 270 562 l 270 596 q 290 667 270 633 q 363 705 314 705 q 415 689 397 705 q 455 599 455 653 l 455 296 q 340 177 455 177 q 307 184 323 177 q 247 283 254 209 l 243 326 l 64 312 l 64 282 q 142 75 64 160 q 345 -14 223 -14 q 554 71 472 -14 q 641 296 641 159 l 641 562 q 591 771 641 697 q 410 857 533 857 q 348 846 375 857 q 270 785 298 825 l 270 1051 "},"6":{"ha":690,"x_min":64,"x_max":626,"o":"m 432 930 l 626 930 l 626 957 q 548 1164 626 1079 q 345 1253 468 1253 q 233 1229 284 1253 q 108 1121 152 1194 q 64 957 64 1048 l 64 282 q 142 75 64 160 q 345 -13 222 -13 q 540 67 461 -13 q 625 265 619 147 l 626 265 l 626 477 q 572 686 626 611 q 388 771 511 771 q 247 714 311 771 l 247 961 q 271 1037 247 1006 q 339 1068 295 1068 q 408 1037 384 1068 q 432 961 432 1006 l 432 930 m 248 285 l 248 511 q 267 581 248 549 q 340 619 292 619 q 393 603 374 619 q 432 514 432 567 l 432 285 q 408 210 432 240 q 339 178 384 178 q 270 210 295 178 q 248 285 248 240 "},"7":{"ha":689,"x_min":64,"x_max":624,"o":"m 624 1238 l 64 1238 l 64 1051 l 442 1051 l 181 1 l 363 1 l 624 1051 l 624 1238 "},"8":{"ha":734,"x_min":64,"x_max":670,"o":"m 670 282 l 670 395 q 646 512 670 464 q 518 653 601 607 q 586 706 555 673 q 655 898 655 782 l 655 965 q 584 1164 655 1084 q 374 1253 505 1253 l 359 1253 q 150 1164 229 1253 q 79 965 79 1085 l 79 898 q 100 781 79 828 q 216 653 141 691 q 140 593 173 629 q 64 395 64 508 l 64 282 q 150 74 64 161 q 359 -13 236 -13 l 374 -13 q 583 73 496 -13 q 670 282 670 159 m 483 370 l 483 311 q 472 254 483 277 q 367 179 443 182 q 288 212 320 181 q 251 311 251 250 l 251 370 q 266 472 251 434 q 367 536 293 536 q 433 518 409 536 q 483 370 483 480 m 489 914 q 465 801 490 843 q 367 751 434 751 q 270 798 300 751 q 245 914 248 834 q 253 1000 243 966 q 288 1055 263 1034 q 367 1082 319 1082 q 409 1074 392 1082 q 489 914 487 1042 "},"9":{"ha":690,"x_min":64,"x_max":626,"o":"m 345 1253 q 236 1231 286 1253 q 114 1129 159 1198 q 65 975 69 1060 l 64 975 l 64 763 q 118 553 64 628 q 302 468 180 468 q 443 526 378 468 l 443 278 q 419 202 443 233 q 350 172 395 172 q 282 202 306 172 q 257 278 257 233 l 257 309 l 64 309 l 64 282 q 142 75 64 160 q 345 -13 222 -13 q 546 73 466 -13 q 626 282 626 159 l 626 957 q 548 1164 626 1079 q 345 1253 468 1253 m 443 955 l 443 729 q 438 694 443 717 q 349 619 420 619 q 297 636 315 619 q 257 726 257 672 l 257 955 q 282 1031 257 1000 q 350 1062 306 1062 q 419 1031 395 1062 q 443 955 443 1000 "}," ":{"ha":128,"x_min":0,"x_max":0,"o":""},"!":{"ha":315,"x_min":64,"x_max":251,"o":"m 64 545 l 78 307 l 237 307 l 251 545 l 251 1237 l 64 1237 l 64 545 m 64 0 l 251 0 l 251 186 l 64 186 l 64 0 "},"\"":{"ha":522,"x_min":64,"x_max":458,"o":"m 93 1150 l 208 1150 l 237 1432 l 64 1432 l 93 1150 m 314 1150 l 429 1150 l 458 1432 l 285 1432 l 314 1150 "},"#":{"ha":1138,"x_min":64,"x_max":1074,"o":"m 851 715 l 1046 715 l 1074 903 l 882 903 l 937 1238 l 751 1238 l 695 903 l 535 903 l 590 1238 l 403 1238 l 348 903 l 163 903 l 134 715 l 318 715 l 278 480 l 93 480 l 64 293 l 248 293 l 199 0 l 386 0 l 434 293 l 595 293 l 546 0 l 733 0 l 781 293 l 976 293 l 1004 480 l 812 480 l 851 715 m 664 715 l 625 480 l 466 480 l 504 715 l 664 715 "},"$":{"ha":746,"x_min":64,"x_max":685,"o":"m 681 317 q 624 493 679 397 q 519 629 588 558 q 432 705 497 652 q 350 783 377 752 q 277 957 277 872 q 299 1048 277 1011 q 377 1093 326 1093 q 450 1063 426 1093 q 493 944 485 1019 l 673 977 q 576 1189 663 1108 q 452 1252 527 1235 l 452 1332 l 294 1332 l 294 1252 q 129 1127 184 1225 q 84 953 84 1049 q 132 768 84 853 q 256 618 171 700 q 423 462 367 514 q 492 309 492 385 q 473 227 492 255 q 376 167 437 169 q 299 201 332 165 q 243 357 254 248 l 64 344 q 122 137 71 226 q 294 5 182 34 l 294 -86 l 452 -86 l 452 1 q 591 68 535 16 q 681 317 685 157 "},"%":{"ha":986,"x_min":64,"x_max":922,"o":"m 374 782 l 374 1135 q 328 1244 374 1199 q 219 1290 283 1290 q 109 1245 155 1290 q 64 1135 64 1199 l 64 782 q 109 674 64 719 q 219 628 155 628 q 328 674 282 628 q 374 782 374 719 m 160 784 l 160 1137 q 176 1177 160 1161 q 216 1194 192 1194 q 256 1177 240 1194 q 272 1137 272 1161 l 272 784 q 256 744 272 761 q 216 728 240 728 q 176 744 192 728 q 160 784 160 761 m 768 655 q 659 610 704 655 q 614 500 614 564 l 614 147 q 659 39 614 84 q 768 -6 704 -6 q 877 38 832 -6 q 922 147 922 83 l 922 500 q 877 609 922 563 q 768 655 833 655 m 822 502 l 822 149 q 805 109 822 125 q 765 93 789 93 q 726 109 742 93 q 709 149 709 125 l 709 502 q 726 542 709 526 q 765 558 742 558 q 805 542 789 558 q 822 502 822 526 m 233 -21 l 863 1287 l 755 1287 l 123 -21 l 233 -21 "},"&":{"ha":860,"x_min":64,"x_max":796,"o":"m 791 582 l 622 619 q 551 395 598 500 q 411 636 473 507 q 513 771 458 699 l 553 824 q 631 1036 631 924 q 605 1153 631 1099 q 508 1258 571 1220 q 369 1296 445 1296 q 245 1266 301 1296 q 136 1156 174 1229 q 100 1004 100 1087 q 109 917 100 962 q 136 827 116 877 q 174 740 146 801 l 212 652 q 163 576 187 616 q 110 485 118 502 q 64 286 64 382 q 112 112 64 188 q 335 -8 189 -8 q 572 109 462 -8 q 796 10 688 10 l 796 182 q 671 249 743 182 q 791 582 747 385 m 271 1005 q 293 1101 271 1059 q 369 1153 321 1153 q 450 1091 425 1153 q 460 1035 460 1071 q 416 928 460 985 l 377 876 l 352 843 q 328 814 340 829 q 271 1005 271 950 m 335 164 q 259 202 286 164 q 237 286 237 235 q 266 412 237 344 q 302 473 284 444 q 455 235 379 332 q 335 164 392 164 "},"'":{"ha":301,"x_min":64,"x_max":237,"o":"m 64 1432 l 93 1150 l 208 1150 l 237 1432 l 64 1432 "},"(":{"ha":498,"x_min":64,"x_max":434,"o":"m 431 1351 l 314 1407 q 188 1183 245 1305 q 142 1073 162 1126 q 64 678 64 864 q 188 153 64 442 q 314 -91 244 24 l 434 -30 q 338 213 381 89 q 243 678 243 497 q 251 792 243 733 q 336 1126 271 943 q 431 1351 378 1241 "},")":{"ha":497,"x_min":64,"x_max":433,"o":"m 184 1406 l 67 1350 q 161 1125 119 1240 q 255 677 255 861 q 248 561 255 621 q 160 212 225 402 q 64 -30 118 91 l 184 -91 q 309 152 254 23 q 433 677 433 441 q 309 1182 433 911 q 184 1406 253 1304 "},"*":{"ha":618,"x_min":64,"x_max":553,"o":"m 553 1002 l 505 1151 l 364 1083 l 386 1238 l 229 1238 l 251 1085 l 115 1151 l 64 1002 l 213 978 l 104 869 l 234 774 l 306 909 l 377 774 l 505 869 l 402 976 l 553 1002 "},"+":{"ha":763,"x_min":64,"x_max":699,"o":"m 451 674 l 451 922 l 313 922 l 313 674 l 64 674 l 64 536 l 313 536 l 313 287 l 451 287 l 451 536 l 699 536 l 699 674 l 451 674 "},",":{"ha":316,"x_min":64,"x_max":252,"o":"m 64 0 l 149 0 l 105 -142 l 183 -142 l 252 0 l 252 185 l 64 185 l 64 0 "},"-":{"ha":681,"x_min":64,"x_max":617,"o":"m 64 711 l 64 524 l 617 524 l 617 711 l 64 711 "},".":{"ha":315,"x_min":64,"x_max":251,"o":"m 64 185 l 64 -1 l 251 -1 l 251 185 l 64 185 "},"/":{"ha":796,"x_min":64,"x_max":732,"o":"m 580 1315 l 64 -37 l 216 -37 l 732 1315 l 580 1315 "},":":{"ha":316,"x_min":64,"x_max":252,"o":"m 64 185 l 64 0 l 252 0 l 252 185 l 64 185 m 64 710 l 64 524 l 252 524 l 252 710 l 64 710 "},";":{"ha":315,"x_min":64,"x_max":251,"o":"m 64 185 l 64 -1 l 148 -1 l 105 -143 l 183 -143 l 251 -1 l 251 185 l 64 185 m 64 710 l 64 524 l 251 524 l 251 710 l 64 710 "},"<":{"ha":747,"x_min":64,"x_max":683,"o":"m 683 941 l 64 677 l 64 542 l 683 274 l 683 430 l 257 609 l 683 784 l 683 941 "},"=":{"ha":763,"x_min":64,"x_max":699,"o":"m 64 701 l 699 701 l 699 839 l 64 839 l 64 701 m 64 431 l 699 431 l 699 569 l 64 569 l 64 431 "},">":{"ha":747,"x_min":64,"x_max":683,"o":"m 64 941 l 64 784 l 489 607 l 64 430 l 64 274 l 683 539 l 683 674 l 64 941 "},"?":{"ha":717,"x_min":64,"x_max":653,"o":"m 365 1253 q 267 1240 310 1253 q 141 1163 186 1216 q 64 969 74 1084 l 244 937 q 258 1006 248 977 q 339 1084 283 1077 q 431 1050 400 1092 q 460 949 460 1013 q 440 831 460 887 q 313 642 405 734 q 227 383 227 557 l 227 309 l 414 309 l 414 383 q 416 442 414 415 q 480 582 420 522 q 653 946 653 755 q 592 1145 653 1060 q 365 1253 515 1253 m 227 179 l 227 -9 l 414 -9 l 414 179 l 227 179 "},"@":{"ha":1389,"x_min":64,"x_max":1325,"o":"m 1122 189 l 1118 185 q 720 38 937 38 q 344 195 483 38 q 211 585 211 345 q 358 1003 211 847 q 731 1158 504 1158 q 1046 1035 928 1158 q 1164 714 1164 912 q 1124 507 1164 594 q 1049 395 1093 442 q 932 332 989 332 q 917 349 917 332 l 1025 1029 l 838 1029 l 829 963 q 651 1054 759 1054 q 377 867 480 1054 q 290 526 290 710 q 355 282 290 379 q 569 170 430 170 q 671 191 627 170 q 753 252 706 209 q 885 170 784 170 q 1200 353 1075 170 q 1311 714 1311 516 q 1034 1235 1311 1065 q 728 1307 916 1307 q 240 1096 415 1307 q 64 577 64 885 q 253 79 64 267 q 721 -109 441 -109 q 1045 -38 891 -109 q 1306 166 1202 36 l 1325 189 l 1122 189 m 742 513 q 695 385 718 424 q 590 315 655 315 q 507 374 536 315 q 485 480 485 419 q 523 731 485 611 q 676 901 575 901 q 755 850 729 901 q 775 753 775 811 q 742 513 775 639 "},"A":{"ha":802,"x_min":64,"x_max":738,"o":"m 304 284 l 498 284 l 543 0 l 738 0 l 531 1236 l 274 1236 l 64 0 l 258 0 l 304 284 m 401 953 l 471 466 l 332 466 l 401 953 "},"B":{"ha":757,"x_min":64,"x_max":692,"o":"m 64 0 l 409 0 q 550 43 479 0 q 648 146 614 82 q 692 345 692 228 q 686 431 692 393 q 643 553 672 506 q 538 647 600 623 q 603 695 575 664 q 669 895 669 770 q 651 1026 669 971 q 543 1179 618 1129 q 343 1237 454 1237 l 64 1237 l 64 0 m 265 184 l 265 553 l 343 553 q 448 510 412 553 q 487 359 487 463 q 474 282 487 316 q 343 184 438 184 l 265 184 m 265 732 l 265 1048 l 343 1048 q 433 1011 399 1048 q 471 895 471 972 q 460 817 471 848 q 343 732 430 732 l 265 732 "},"C":{"ha":719,"x_min":64,"x_max":655,"o":"m 360 -16 q 568 70 481 -16 q 655 279 655 156 l 655 452 l 462 452 l 462 281 q 430 206 462 237 q 354 175 399 175 q 279 206 310 175 q 248 281 248 237 l 248 958 q 279 1034 248 1002 q 354 1065 310 1065 q 430 1034 399 1065 q 462 958 462 1002 l 462 813 l 655 813 l 655 954 q 569 1163 655 1076 q 360 1250 483 1250 q 151 1163 238 1250 q 64 954 64 1077 l 64 279 q 150 71 64 157 q 360 -16 237 -16 "},"D":{"ha":714,"x_min":64,"x_max":650,"o":"m 650 296 l 650 942 q 565 1150 650 1063 q 357 1237 479 1237 l 64 1237 l 64 0 l 357 0 q 564 87 478 0 q 650 296 650 174 m 251 184 l 251 1047 l 363 1047 q 437 1015 406 1047 q 469 939 469 983 l 469 292 q 438 217 469 249 q 363 184 407 184 l 251 184 "},"E":{"ha":659,"x_min":64,"x_max":595,"o":"m 64 0 l 595 0 l 595 186 l 251 186 l 251 525 l 502 525 l 502 712 l 251 712 l 251 1051 l 595 1051 l 595 1237 l 64 1237 l 64 0 "},"F":{"ha":659,"x_min":64,"x_max":595,"o":"m 251 0 l 251 525 l 502 525 l 502 712 l 251 712 l 251 1051 l 595 1051 l 595 1237 l 64 1237 l 64 0 l 251 0 "},"G":{"ha":719,"x_min":64,"x_max":655,"o":"m 360 -16 q 568 70 481 -16 q 655 279 655 156 l 655 711 l 358 711 l 358 525 l 462 525 l 462 281 q 430 206 462 237 q 354 175 399 175 q 279 206 310 175 q 248 281 248 237 l 248 958 q 279 1034 248 1002 q 354 1065 310 1065 q 430 1034 399 1065 q 462 958 462 1002 l 462 813 l 655 813 l 655 954 q 569 1163 655 1076 q 360 1250 483 1250 q 151 1163 238 1250 q 64 954 64 1077 l 64 279 q 150 71 64 158 q 360 -16 237 -16 "},"H":{"ha":726,"x_min":64,"x_max":662,"o":"m 252 524 l 474 524 l 474 0 l 662 0 l 662 1236 l 474 1236 l 474 711 l 252 711 l 252 1236 l 64 1236 l 64 0 l 252 0 l 252 524 "},"I":{"ha":315,"x_min":64,"x_max":251,"o":"m 251 0 l 251 1236 l 64 1236 l 64 0 l 251 0 "},"J":{"ha":539,"x_min":64,"x_max":474,"o":"m 474 280 l 474 1234 l 292 1234 l 292 276 q 261 202 292 232 q 184 170 230 173 q 145 169 159 168 q 91 175 122 169 l 64 1 q 180 -14 109 -14 q 388 72 302 -14 q 474 280 474 157 "},"K":{"ha":785,"x_min":64,"x_max":721,"o":"m 252 391 l 307 501 l 502 0 l 721 0 l 422 731 l 678 1237 l 478 1237 l 252 796 l 252 1237 l 64 1237 l 64 0 l 252 0 l 252 391 "},"L":{"ha":636,"x_min":64,"x_max":572,"o":"m 572 0 l 572 185 l 251 185 l 251 1236 l 64 1236 l 64 0 l 572 0 "},"M":{"ha":993,"x_min":64,"x_max":929,"o":"m 251 0 l 251 775 l 431 0 l 581 0 l 743 777 l 743 0 l 929 0 l 929 1237 l 672 1237 l 505 350 l 331 1237 l 64 1237 l 64 0 l 251 0 "},"N":{"ha":771,"x_min":64,"x_max":707,"o":"m 274 1237 l 64 1237 l 64 0 l 251 0 l 251 792 l 507 0 l 707 0 l 707 1237 l 521 1237 l 521 406 l 274 1237 "},"O":{"ha":719,"x_min":64,"x_max":655,"o":"m 359 1252 q 151 1165 238 1252 q 64 956 64 1079 l 64 281 q 150 72 64 159 q 359 -15 236 -15 q 568 72 481 -15 q 655 281 655 158 l 655 956 q 569 1165 655 1078 q 359 1252 482 1252 m 461 960 l 461 283 q 430 208 461 239 q 354 177 399 177 q 278 208 310 177 q 247 283 247 239 l 247 960 q 278 1035 247 1004 q 354 1066 310 1066 q 430 1035 399 1066 q 461 960 461 1004 "},"P":{"ha":714,"x_min":64,"x_max":650,"o":"m 358 1236 l 64 1236 l 64 0 l 251 0 l 251 466 l 358 466 q 565 552 479 466 q 650 762 650 639 l 650 941 q 575 1150 650 1068 q 358 1236 494 1236 m 470 938 l 470 758 q 438 682 470 713 q 363 650 407 650 l 251 650 l 251 1046 l 363 1046 q 440 1016 411 1046 q 470 938 470 986 "},"Q":{"ha":751,"x_min":64,"x_max":687,"o":"m 655 281 l 655 956 q 569 1164 655 1077 q 360 1252 483 1252 q 151 1165 238 1252 q 64 956 64 1079 l 64 281 q 150 72 64 159 q 360 -15 237 -15 q 495 19 433 -15 q 687 -69 546 -69 l 687 105 q 616 133 640 105 q 655 281 655 201 m 462 960 l 462 283 q 430 208 462 239 q 354 177 399 177 q 279 208 310 177 q 248 283 248 239 l 248 960 q 279 1035 248 1004 q 354 1066 310 1066 q 430 1035 399 1066 q 462 960 462 1004 "},"R":{"ha":754,"x_min":64,"x_max":690,"o":"m 358 1236 l 64 1236 l 64 0 l 251 0 l 251 466 l 358 466 q 375 467 367 466 l 488 0 l 690 0 l 551 540 q 651 762 651 630 l 651 941 q 587 1150 651 1075 q 358 1236 514 1236 m 470 938 l 470 758 q 438 682 470 713 q 363 650 407 650 l 251 650 l 251 1046 l 363 1046 q 470 938 470 1046 "},"S":{"ha":745,"x_min":64,"x_max":683,"o":"m 681 308 q 653 426 680 360 q 624 484 642 453 q 518 620 587 551 q 432 696 497 642 q 349 775 377 742 q 276 948 276 863 q 298 1039 276 1002 q 376 1084 325 1084 q 450 1054 424 1084 q 493 935 485 1011 l 672 968 q 631 1111 665 1049 q 542 1207 597 1173 q 371 1252 471 1252 q 197 1199 267 1252 q 84 944 84 1113 q 125 770 84 850 q 256 610 164 699 q 422 453 367 505 q 492 300 492 377 q 473 218 492 247 q 376 158 437 160 q 299 192 332 156 q 242 348 254 241 l 64 335 q 105 160 70 237 q 200 39 140 84 q 382 -15 272 -15 q 485 -1 441 -15 q 614 87 568 25 q 681 308 683 179 "},"T":{"ha":710,"x_min":64,"x_max":646,"o":"m 262 1050 l 262 0 l 449 0 l 449 1050 l 646 1050 l 646 1236 l 64 1236 l 64 1050 l 262 1050 "},"U":{"ha":719,"x_min":64,"x_max":655,"o":"m 359 -14 q 568 71 481 -14 q 655 280 655 156 l 655 1236 l 461 1236 l 461 282 q 430 207 461 238 q 354 176 399 176 q 278 207 310 176 q 247 282 247 238 l 247 1236 l 64 1236 l 64 280 q 150 72 64 158 q 359 -14 236 -14 "},"V":{"ha":831,"x_min":64,"x_max":766,"o":"m 285 0 l 542 0 l 766 1236 l 571 1236 l 414 274 l 259 1236 l 64 1236 l 285 0 "},"W":{"ha":1090,"x_min":64,"x_max":1026,"o":"m 831 1236 l 740 574 l 642 1236 l 447 1236 l 357 574 l 259 1236 l 64 1236 l 271 0 l 450 0 l 548 675 l 654 0 l 833 0 l 1026 1236 l 831 1236 "},"X":{"ha":816,"x_min":64,"x_max":752,"o":"m 752 0 l 509 621 l 752 1236 l 545 1236 l 408 854 l 270 1236 l 64 1236 l 307 621 l 64 0 l 264 0 l 408 393 l 551 0 l 752 0 "},"Y":{"ha":815,"x_min":64,"x_max":751,"o":"m 314 518 l 314 0 l 500 0 l 500 518 l 751 1237 l 545 1237 l 407 793 l 269 1237 l 64 1237 l 314 518 "},"Z":{"ha":673,"x_min":64,"x_max":609,"o":"m 609 1236 l 64 1236 l 64 1050 l 408 1050 l 64 185 l 64 0 l 609 0 l 609 185 l 265 185 l 609 1050 l 609 1236 "},"[":{"ha":442,"x_min":64,"x_max":378,"o":"m 64 1314 l 64 -1 l 378 -1 l 378 184 l 252 184 l 252 1126 l 378 1126 l 378 1314 l 64 1314 "},"\\":{"ha":796,"x_min":64,"x_max":732,"o":"m 64 1314 l 580 -37 l 732 -37 l 215 1314 l 64 1314 "},"]":{"ha":441,"x_min":64,"x_max":377,"o":"m 64 1315 l 64 1127 l 190 1127 l 190 185 l 64 185 l 64 -1 l 377 -1 l 377 1315 l 64 1315 "},"^":{"ha":527,"x_min":64,"x_max":463,"o":"m 309 1432 l 218 1432 l 64 1086 l 194 1086 l 264 1255 l 334 1086 l 463 1086 l 309 1432 "},"_":{"ha":1082,"x_min":64,"x_max":1018,"o":"m 64 -207 l 1018 -207 l 1018 -70 l 64 -70 l 64 -207 "},"`":{"ha":401,"x_min":64,"x_max":337,"o":"m 64 1397 l 222 1114 l 337 1114 l 237 1397 l 64 1397 "},"a":{"ha":802,"x_min":64,"x_max":738,"o":"m 304 284 l 498 284 l 543 0 l 738 0 l 531 1236 l 274 1236 l 64 0 l 258 0 l 304 284 m 401 953 l 471 466 l 332 466 l 401 953 "},"b":{"ha":757,"x_min":64,"x_max":692,"o":"m 64 0 l 409 0 q 550 43 479 0 q 648 146 614 82 q 692 345 692 228 q 686 431 692 393 q 643 553 672 506 q 538 647 600 623 q 603 695 575 664 q 669 895 669 770 q 651 1026 669 971 q 543 1179 618 1129 q 343 1237 454 1237 l 64 1237 l 64 0 m 265 184 l 265 553 l 343 553 q 448 510 412 553 q 487 359 487 463 q 474 282 487 316 q 343 184 438 184 l 265 184 m 265 732 l 265 1048 l 343 1048 q 433 1011 399 1048 q 471 895 471 972 q 460 817 471 848 q 343 732 430 732 l 265 732 "},"c":{"ha":719,"x_min":64,"x_max":655,"o":"m 360 -16 q 568 70 481 -16 q 655 279 655 156 l 655 452 l 462 452 l 462 281 q 430 206 462 237 q 354 175 399 175 q 279 206 310 175 q 248 281 248 237 l 248 958 q 279 1034 248 1002 q 354 1065 310 1065 q 430 1034 399 1065 q 462 958 462 1002 l 462 813 l 655 813 l 655 954 q 569 1163 655 1076 q 360 1250 483 1250 q 151 1163 238 1250 q 64 954 64 1077 l 64 279 q 150 71 64 157 q 360 -16 237 -16 "},"d":{"ha":714,"x_min":64,"x_max":650,"o":"m 650 296 l 650 942 q 565 1150 650 1063 q 357 1237 479 1237 l 64 1237 l 64 0 l 357 0 q 564 87 478 0 q 650 296 650 174 m 251 184 l 251 1047 l 363 1047 q 437 1015 406 1047 q 469 939 469 983 l 469 292 q 438 217 469 249 q 363 184 407 184 l 251 184 "},"e":{"ha":659,"x_min":64,"x_max":595,"o":"m 64 0 l 595 0 l 595 186 l 251 186 l 251 525 l 502 525 l 502 712 l 251 712 l 251 1051 l 595 1051 l 595 1237 l 64 1237 l 64 0 "},"f":{"ha":659,"x_min":64,"x_max":595,"o":"m 251 0 l 251 525 l 502 525 l 502 712 l 251 712 l 251 1051 l 595 1051 l 595 1237 l 64 1237 l 64 0 l 251 0 "},"g":{"ha":719,"x_min":64,"x_max":655,"o":"m 360 -16 q 568 70 481 -16 q 655 279 655 156 l 655 711 l 358 711 l 358 525 l 462 525 l 462 281 q 430 206 462 237 q 354 175 399 175 q 279 206 310 175 q 248 281 248 237 l 248 958 q 279 1034 248 1002 q 354 1065 310 1065 q 430 1034 399 1065 q 462 958 462 1002 l 462 813 l 655 813 l 655 954 q 569 1163 655 1076 q 360 1250 483 1250 q 151 1163 238 1250 q 64 954 64 1077 l 64 279 q 150 71 64 158 q 360 -16 237 -16 "},"h":{"ha":726,"x_min":64,"x_max":662,"o":"m 252 524 l 474 524 l 474 0 l 662 0 l 662 1236 l 474 1236 l 474 711 l 252 711 l 252 1236 l 64 1236 l 64 0 l 252 0 l 252 524 "},"i":{"ha":315,"x_min":64,"x_max":251,"o":"m 251 0 l 251 1236 l 64 1236 l 64 0 l 251 0 "},"j":{"ha":539,"x_min":64,"x_max":474,"o":"m 474 280 l 474 1234 l 292 1234 l 292 276 q 261 202 292 232 q 184 170 230 173 q 145 169 159 168 q 91 175 122 169 l 64 1 q 180 -14 109 -14 q 388 72 302 -14 q 474 280 474 157 "},"k":{"ha":785,"x_min":64,"x_max":721,"o":"m 252 391 l 307 501 l 502 0 l 721 0 l 422 731 l 678 1237 l 478 1237 l 252 796 l 252 1237 l 64 1237 l 64 0 l 252 0 l 252 391 "},"l":{"ha":636,"x_min":64,"x_max":572,"o":"m 572 0 l 572 185 l 251 185 l 251 1236 l 64 1236 l 64 0 l 572 0 "},"m":{"ha":993,"x_min":64,"x_max":929,"o":"m 251 0 l 251 775 l 431 0 l 581 0 l 743 777 l 743 0 l 929 0 l 929 1237 l 672 1237 l 505 350 l 331 1237 l 64 1237 l 64 0 l 251 0 "},"n":{"ha":771,"x_min":64,"x_max":707,"o":"m 274 1237 l 64 1237 l 64 0 l 251 0 l 251 792 l 507 0 l 707 0 l 707 1237 l 521 1237 l 521 406 l 274 1237 "},"o":{"ha":719,"x_min":64,"x_max":655,"o":"m 359 1252 q 151 1165 238 1252 q 64 956 64 1079 l 64 281 q 150 72 64 159 q 359 -15 236 -15 q 568 72 481 -15 q 655 281 655 158 l 655 956 q 569 1165 655 1078 q 359 1252 482 1252 m 461 960 l 461 283 q 430 208 461 239 q 354 177 399 177 q 278 208 310 177 q 247 283 247 239 l 247 960 q 278 1035 247 1004 q 354 1066 310 1066 q 430 1035 399 1066 q 461 960 461 1004 "},"p":{"ha":714,"x_min":64,"x_max":650,"o":"m 358 1236 l 64 1236 l 64 0 l 251 0 l 251 466 l 358 466 q 565 552 479 466 q 650 762 650 639 l 650 941 q 575 1150 650 1068 q 358 1236 494 1236 m 470 938 l 470 758 q 438 682 470 713 q 363 650 407 650 l 251 650 l 251 1046 l 363 1046 q 440 1016 411 1046 q 470 938 470 986 "},"q":{"ha":751,"x_min":64,"x_max":687,"o":"m 655 281 l 655 956 q 569 1164 655 1077 q 360 1252 483 1252 q 151 1165 238 1252 q 64 956 64 1079 l 64 281 q 150 72 64 159 q 360 -15 237 -15 q 495 19 433 -15 q 687 -69 546 -69 l 687 105 q 616 133 640 105 q 655 281 655 201 m 462 960 l 462 283 q 430 208 462 239 q 354 177 399 177 q 279 208 310 177 q 248 283 248 239 l 248 960 q 279 1035 248 1004 q 354 1066 310 1066 q 430 1035 399 1066 q 462 960 462 1004 "},"r":{"ha":754,"x_min":64,"x_max":690,"o":"m 358 1236 l 64 1236 l 64 0 l 251 0 l 251 466 l 358 466 q 375 467 367 466 l 488 0 l 690 0 l 551 540 q 651 762 651 630 l 651 941 q 587 1150 651 1075 q 358 1236 514 1236 m 470 938 l 470 758 q 438 682 470 713 q 363 650 407 650 l 251 650 l 251 1046 l 363 1046 q 470 938 470 1046 "},"s":{"ha":745,"x_min":64,"x_max":683,"o":"m 681 308 q 653 426 680 360 q 624 484 642 453 q 518 620 587 551 q 432 696 497 642 q 349 775 377 742 q 276 948 276 863 q 298 1039 276 1002 q 376 1084 325 1084 q 450 1054 424 1084 q 493 935 485 1011 l 672 968 q 631 1111 665 1049 q 542 1207 597 1173 q 371 1252 471 1252 q 197 1199 267 1252 q 84 944 84 1113 q 125 770 84 850 q 256 610 164 699 q 422 453 367 505 q 492 300 492 377 q 473 218 492 247 q 376 158 437 160 q 299 192 332 156 q 242 348 254 241 l 64 335 q 105 160 70 237 q 200 39 140 84 q 382 -15 272 -15 q 485 -1 441 -15 q 614 87 568 25 q 681 308 683 179 "},"t":{"ha":710,"x_min":64,"x_max":646,"o":"m 262 1050 l 262 0 l 449 0 l 449 1050 l 646 1050 l 646 1236 l 64 1236 l 64 1050 l 262 1050 "},"u":{"ha":719,"x_min":64,"x_max":655,"o":"m 359 -14 q 568 71 481 -14 q 655 280 655 156 l 655 1236 l 461 1236 l 461 282 q 430 207 461 238 q 354 176 399 176 q 278 207 310 176 q 247 282 247 238 l 247 1236 l 64 1236 l 64 280 q 150 72 64 158 q 359 -14 236 -14 "},"v":{"ha":831,"x_min":64,"x_max":766,"o":"m 285 0 l 542 0 l 766 1236 l 571 1236 l 414 274 l 259 1236 l 64 1236 l 285 0 "},"w":{"ha":1090,"x_min":64,"x_max":1026,"o":"m 831 1236 l 740 574 l 642 1236 l 447 1236 l 357 574 l 259 1236 l 64 1236 l 271 0 l 450 0 l 548 675 l 654 0 l 833 0 l 1026 1236 l 831 1236 "},"x":{"ha":816,"x_min":64,"x_max":752,"o":"m 752 0 l 509 621 l 752 1236 l 545 1236 l 408 854 l 270 1236 l 64 1236 l 307 621 l 64 0 l 264 0 l 408 393 l 551 0 l 752 0 "},"y":{"ha":815,"x_min":64,"x_max":751,"o":"m 314 518 l 314 0 l 500 0 l 500 518 l 751 1237 l 545 1237 l 407 793 l 269 1237 l 64 1237 l 314 518 "},"z":{"ha":673,"x_min":64,"x_max":609,"o":"m 609 1236 l 64 1236 l 64 1050 l 408 1050 l 64 185 l 64 0 l 609 0 l 609 185 l 265 185 l 609 1050 l 609 1236 "},"{":{"ha":529,"x_min":64,"x_max":465,"o":"m 162 1087 l 162 896 q 153 769 162 793 q 64 707 132 713 l 64 612 q 153 550 132 607 q 162 423 162 526 l 162 233 q 234 41 162 96 q 465 -11 302 -11 l 465 118 q 348 141 379 118 q 318 238 318 164 l 318 503 q 291 598 318 554 q 225 660 263 645 q 293 725 266 677 q 318 817 318 769 l 318 1081 q 348 1178 318 1154 q 465 1201 379 1201 l 465 1331 q 234 1278 302 1331 q 162 1087 162 1224 "},"|":{"ha":306,"x_min":64,"x_max":242,"o":"m 64 1629 l 64 -102 l 242 -102 l 242 1629 l 64 1629 "},"}":{"ha":529,"x_min":64,"x_max":465,"o":"m 390 734 q 369 808 372 764 q 368 887 368 823 l 368 1078 q 295 1270 368 1215 q 64 1322 227 1322 l 64 1193 q 181 1170 151 1193 q 211 1073 211 1147 l 211 808 q 238 713 211 760 q 304 651 265 667 q 237 587 263 635 q 211 494 211 540 l 211 229 q 181 132 211 155 q 64 109 151 109 l 64 -19 q 295 33 229 -19 q 368 224 368 87 l 368 414 q 369 494 368 479 q 377 542 371 526 q 405 585 389 572 q 465 603 422 599 l 465 698 q 399 719 407 703 q 390 734 390 734 "},"~":{"ha":732,"x_min":64,"x_max":668,"o":"m 445 1369 q 349 1420 398 1395 q 246 1449 292 1448 q 64 1344 145 1453 l 168 1267 q 242 1321 209 1321 q 331 1284 265 1321 q 481 1232 424 1233 q 668 1341 584 1228 l 564 1417 q 486 1359 522 1360 q 445 1369 468 1359 "},"":{"ha":505,"x_min":0,"x_max":0,"o":""}}}
